PathFileType	4	(X/Y/Z)	/Users/giacomo/dev/rowing-video-analysis/sports2d_app/runs/gb8_20260203_210816/sports2d/input_Sports2D/input_Sports2D_px_person00.trc
DataRate	CameraRate	NumFrames	NumMarkers	Units	OrigDataRate	OrigDataStartFrame	OrigNumFrames
50.0	50.0	4	133	m	50.0	0	638
Frame#	Time	RHip			RKnee			RAnkle			RBigToe			RSmallToe			RHeel			LHip			LKnee			LAnkle			LBigToe			LSmallToe			LHeel			Nose			REye			LEye			REar			LEar			RShoulder			RElbow			RWrist			RThumb1			RThumb			RThumb3			RThumb4			RIndex			RIndex2			RIndex3			RIndex4			RMiddle1			RMiddle2			RMiddle3			RMiddle4			RRing1			RRing2			RRing3			RRing4			RPinky			RPinky2			RPinky3			RPinky4			LShoulder			LElbow			LWrist			LThumb1			LThumb			LThumb3			LThumb4			LIndex			LIndex2			LIndex3			LIndex4			LMiddle1			LMiddle2			LMiddle3			LMiddle4			LRing1			LRing2			LRing3			LRing4			LPinky			LPinky2			LPinky3			LPinky4			Jaw1			Jaw2			Jaw3			Jaw4			Jaw5			Jaw6			Jaw7			Jaw8			Jaw9			Jaw10			Jaw11			Jaw12			Jaw13			Jaw14			Jaw15			Jaw16			Jaw17			EyebrowR1			EyebrowR2			EyebrowR3			EyebrowR4			EyebrowR5			EyebrowL1			EyebrowL2			EyebrowL3			EyebrowL4			EyebrowL5			Nose1			Nose2			Nose3			Nose4			Nose5			Nose6			Nose7			Nose8			Nose9			REye1			REye2			REye3			REye4			REye5			REye6			LEye1			LEye2			LEye3			LEye4			LEye5			LEye6			Mouth1			Mouth2			Mouth3			Mouth4			Mouth5			Mouth6			Mouth7			Mouth8			Mouth9			Mouth10			Mouth11			Mouth12			Mouth13			Mouth14			Mouth15			Mouth16			Mouth17			Mouth18			Mouth19			Mouth20			Hip			Neck			
		X1	Y1	Z1	X2	Y2	Z2	X3	Y3	Z3	X4	Y4	Z4	X5	Y5	Z5	X6	Y6	Z6	X7	Y7	Z7	X8	Y8	Z8	X9	Y9	Z9	X10	Y10	Z10	X11	Y11	Z11	X12	Y12	Z12	X13	Y13	Z13	X14	Y14	Z14	X15	Y15	Z15	X16	Y16	Z16	X17	Y17	Z17	X18	Y18	Z18	X19	Y19	Z19	X20	Y20	Z20	X21	Y21	Z21	X22	Y22	Z22	X23	Y23	Z23	X24	Y24	Z24	X25	Y25	Z25	X26	Y26	Z26	X27	Y27	Z27	X28	Y28	Z28	X29	Y29	Z29	X30	Y30	Z30	X31	Y31	Z31	X32	Y32	Z32	X33	Y33	Z33	X34	Y34	Z34	X35	Y35	Z35	X36	Y36	Z36	X37	Y37	Z37	X38	Y38	Z38	X39	Y39	Z39	X40	Y40	Z40	X41	Y41	Z41	X42	Y42	Z42	X43	Y43	Z43	X44	Y44	Z44	X45	Y45	Z45	X46	Y46	Z46	X47	Y47	Z47	X48	Y48	Z48	X49	Y49	Z49	X50	Y50	Z50	X51	Y51	Z51	X52	Y52	Z52	X53	Y53	Z53	X54	Y54	Z54	X55	Y55	Z55	X56	Y56	Z56	X57	Y57	Z57	X58	Y58	Z58	X59	Y59	Z59	X60	Y60	Z60	X61	Y61	Z61	X62	Y62	Z62	X63	Y63	Z63	X64	Y64	Z64	X65	Y65	Z65	X66	Y66	Z66	X67	Y67	Z67	X68	Y68	Z68	X69	Y69	Z69	X70	Y70	Z70	X71	Y71	Z71	X72	Y72	Z72	X73	Y73	Z73	X74	Y74	Z74	X75	Y75	Z75	X76	Y76	Z76	X77	Y77	Z77	X78	Y78	Z78	X79	Y79	Z79	X80	Y80	Z80	X81	Y81	Z81	X82	Y82	Z82	X83	Y83	Z83	X84	Y84	Z84	X85	Y85	Z85	X86	Y86	Z86	X87	Y87	Z87	X88	Y88	Z88	X89	Y89	Z89	X90	Y90	Z90	X91	Y91	Z91	X92	Y92	Z92	X93	Y93	Z93	X94	Y94	Z94	X95	Y95	Z95	X96	Y96	Z96	X97	Y97	Z97	X98	Y98	Z98	X99	Y99	Z99	X100	Y100	Z100	X101	Y101	Z101	X102	Y102	Z102	X103	Y103	Z103	X104	Y104	Z104	X105	Y105	Z105	X106	Y106	Z106	X107	Y107	Z107	X108	Y108	Z108	X109	Y109	Z109	X110	Y110	Z110	X111	Y111	Z111	X112	Y112	Z112	X113	Y113	Z113	X114	Y114	Z114	X115	Y115	Z115	X116	Y116	Z116	X117	Y117	Z117	X118	Y118	Z118	X119	Y119	Z119	X120	Y120	Z120	X121	Y121	Z121	X122	Y122	Z122	X123	Y123	Z123	X124	Y124	Z124	X125	Y125	Z125	X126	Y126	Z126	X127	Y127	Z127	X128	Y128	Z128	X129	Y129	Z129	X130	Y130	Z130	X131	Y131	Z131	X132	Y132	Z132	X133	Y133	Z133
0	0.0	692.8169119343544	528.6252310255335	0.0	848.1888931939477	429.95812920602395	0.0	866.4885503110816	567.0453855284026	0.0	888.405340840922	552.4006812537747	0.0	875.6436881534758	546.9303175413751	0.0	866.4758135404621	583.4854213035131	0.0	698.2987709845981	521.322244303495	0.0	868.2799469207945	417.15396346687106	0.0	850.0103619762154	543.2783126916812	0.0	866.496723090371	543.2741229884988	0.0	873.7801364325832	523.1330227516622	0.0	870.0906104461493	559.69109626389	0.0	890.1636487788169	294.6900524472477	0.0	875.5403793486673	276.41593792455404	0.0	884.6782421765696	274.5885007542997	0.0	828.0252566455167	283.7228135726231	0.0	837.162855411371	283.724862598966	0.0	824.3825925189097	355.008606569171	0.0	961.4317820764785	408.0030908300943	0.0	1085.7409784863983	429.9182134273871	0.0	1105.8440020641	439.06119322958574	0.0	1111.325263351514	451.85364214113974	0.0	1116.8099781594817	460.9825358001288	0.0	1125.9446958839526	464.63545417237555	0.0	1125.9512090625717	437.2267677625154	0.0	1135.087496856808	448.18890986261613	0.0	1136.9154809486897	455.50352971519436	0.0	1135.0834505147395	459.1617740780464	0.0	1131.4404465122054	437.2246859230518	0.0	1140.568512824926	448.1929484666296	0.0	1138.7406604011244	453.6793998205123	0.0	1135.0803569160319	457.3330536963603	0.0	1133.268233497865	437.22239644401986	0.0	1142.4024599662703	448.19362179754125	0.0	1142.3988078524544	451.85394277494174	0.0	1136.9150421575548	457.3386960191821	0.0	1133.2684944961015	439.0494644510613	0.0	1142.4044393599447	446.3636972785187	0.0	1142.3972022559901	451.85491756708285	0.0	1140.5703928885753	453.68310903618055	0.0	769.5450590362312	334.90159186607013	0.0	886.5513991838121	428.09669876132335	0.0	968.7820218183509	453.69334976280317	0.0	988.8898390776386	451.8557125514117	0.0	1005.336693981855	459.1664979179153	0.0	1012.6575065512717	464.6497816471059	0.0	1016.3180986274642	468.3001469780257	0.0	1007.1658001779435	451.8543422914654	0.0	1012.6570887620454	457.33389662995853	0.0	1016.3159212288291	459.16446658748447	0.0	1014.4895711161589	462.8218134108697	0.0	1003.5122557895155	453.68709987890657	0.0	1014.4826631770443	462.8175228293963	0.0	1014.484540928569	464.645894992182	0.0	1014.4971577161232	466.47778973793226	0.0	1001.6859629783072	459.1696899734013	0.0	1010.825748909673	468.29942690974235	0.0	1012.6562458783782	468.3033662954261	0.0	1010.8349792252063	470.13505263971837	0.0	998.0340645284438	462.82459615786735	0.0	1003.5187998211438	470.135310947211	0.0	1007.1784848068497	470.1353400014855	0.0	1007.181716244235	470.13664387250407	0.0	835.3323230284982	272.7645618951515	0.0	835.3328447578623	283.7262583706158	0.0	837.1632518758089	292.86774444792877	0.0	838.9925941415415	302.0016553515929	0.0	844.4738439503571	307.48389907864674	0.0	851.789921011266	312.9700803119685	0.0	860.9256902731503	318.4511030239736	0.0	870.0623054620127	322.10757193469436	0.0	879.2002783535456	322.1074181215115	0.0	882.8543128148207	320.2817212921567	0.0	884.6817627605121	314.7995647448433	0.0	882.8580862978598	311.1387421940523	0.0	882.8580917796506	303.82743093437335	0.0	881.0305653921273	296.52120048344136	0.0	881.0278418074286	287.3811118809395	0.0	881.0251829270076	278.2445392087204	0.0	881.0237600674261	267.2755047516139	0.0	864.5726744555691	267.28022508617767	0.0	870.0571710133431	265.4497040990067	0.0	875.5352926503372	263.6251965050438	0.0	879.1902036745503	263.6252048920226	0.0	882.848725467904	265.45046933715156	0.0	888.3292193389926	263.6207942203717	0.0	890.1544303015667	263.6243770187001	0.0	890.1544337525256	263.6244736463203	0.0	890.1559209789235	263.6243770284681	0.0	890.1587126698456	265.45118315597	0.0	884.67605364968	274.59028249655853	0.0	888.3319916500724	280.07109254421266	0.0	891.9861106001464	285.54935928484485	0.0	891.9887041828217	291.03507689268065	0.0	882.8513402029002	294.69063872666953	0.0	884.6803544089952	294.69061731828793	0.0	886.5080428247958	294.6897278370112	0.0	888.3371524136952	294.6871407541579	0.0	890.1647853496163	292.86075374538126	0.0	868.230422457603	274.5900609345749	0.0	871.8847584432049	272.76040841240894	0.0	875.5394377927222	270.9328199085148	0.0	877.3682188267695	274.5893648718059	0.0	875.5430153439864	276.415301925126	0.0	871.8845272509665	276.4153021545045	0.0	884.6753543110784	272.76017865878157	0.0	886.505158430941	270.93287466985083	0.0	888.3292645505272	270.93451597867505	0.0	888.330423104376	272.76040122091246	0.0	888.3347043381575	272.7604017294429	0.0	886.5053124959081	272.76112767788453	0.0	875.5420673777811	305.65701370932425	0.0	881.0280284348464	303.8269896739026	0.0	886.507127734368	302.0004081117551	0.0	888.3380120435855	302.0014117743171	0.0	888.3345048090575	302.0015625141511	0.0	890.1635801590273	303.8288446222437	0.0	888.3372231783173	303.83089294960405	0.0	888.3360644968533	307.4846053402184	0.0	888.3360686609047	311.1414901426139	0.0	884.681027550994	311.14104085341194	0.0	882.855452664855	311.1368024576363	0.0	879.1987678969626	309.3121541081467	0.0	877.371206971682	305.6572392860372	0.0	882.852028731004	305.6573605289362	0.0	886.5062509814344	305.65735889641155	0.0	888.3361306488384	303.82976969025464	0.0	888.3379642897338	303.8308171722515	0.0	886.5069587736816	307.4862579765773	0.0	884.6837833886277	307.48270525203924	0.0	882.8537422275751	307.4819807928745	0.0	695.5578414594762	524.9737377092545	0.0	796.9638257775705	344.9550997235495	0.0
1	0.020031397174254315	690.1661690664411	529.0220922875121	0.0	846.4285897054353	429.4536052928621	0.0	865.5262422614907	568.928708264069	0.0	893.7917900263192	554.3280132821699	0.0	880.2655772425717	549.9702397844853	0.0	865.2663950625076	582.8627632548391	0.0	702.3095894510382	518.3936466412686	0.0	865.4568457513931	415.4058004176996	0.0	854.0825844111864	545.3783561268768	0.0	882.1737376253959	544.2058581542238	0.0	880.1558851178954	524.2232310473563	0.0	872.1251956768634	564.2111042100797	0.0	887.2342669594533	292.555517114156	0.0	872.5700494729837	275.1395045739609	0.0	881.8828026446843	273.2340309828472	0.0	825.4321418113286	283.0970990400056	0.0	834.8590917586611	281.90867933371766	0.0	820.8889645189655	354.0606057384675	0.0	961.0661464778633	406.0973081678087	0.0	1085.7156098301919	429.40036331887006	0.0	1104.660276528562	438.0265012041983	0.0	1110.900701784942	450.37492489624054	0.0	1117.3193871054132	458.5704476045611	0.0	1125.4183416959904	462.59436967588863	0.0	1124.9717309763023	437.01822834817176	0.0	1134.6609669936558	446.5851061883905	0.0	1136.6520664546852	452.81382580440874	0.0	1135.6119172955318	456.9406852425772	0.0	1129.4584806870341	437.21706874713976	0.0	1139.0756888296553	446.47098909766794	0.0	1138.3146578723072	451.47411877051684	0.0	1135.566806497964	454.9535964787603	0.0	1131.0709061928085	436.87130190481906	0.0	1140.7003400783337	446.27928092462474	0.0	1141.3581516443835	450.1277985267658	0.0	1137.0481948979777	454.8520908444302	0.0	1130.8183961215368	438.34611376326694	0.0	1140.2309371674423	444.55971555963265	0.0	1140.952447383946	449.21658015273465	0.0	1140.0556751715324	451.77677376755236	0.0	779.9096519073332	335.5070698875939	0.0	887.0921140344839	427.17688584932097	0.0	968.7196873967993	453.4679687092795	0.0	987.6378907709191	452.90503132751866	0.0	1003.1833117694899	459.10641481780846	0.0	1010.9296005796543	463.72053421367764	0.0	1015.8179343709081	467.39157012415336	0.0	1006.8559388619371	451.7613869900234	0.0	1012.9195509276357	457.35212798441626	0.0	1016.4679870982646	458.9782330453438	0.0	1015.3251726413536	462.44409920331316	0.0	1004.114820054801	454.3069800332301	0.0	1014.3610814016595	462.5253645369639	0.0	1014.3437953193121	463.6766279642288	0.0	1014.8497496976557	466.089130002331	0.0	1002.6208099555772	459.0591986101141	0.0	1011.2215447970298	467.0793059664611	0.0	1012.9700701103607	467.01910879834844	0.0	1010.6047286438231	468.7011151663345	0.0	999.9634386419524	462.29365104098065	0.0	1005.231791970141	469.0901020644529	0.0	1008.4068146603746	469.10213881420975	0.0	1007.9795084093573	469.4750819698571	0.0	832.6348460015726	272.2083357997458	0.0	833.0725964293783	282.4752905261454	0.0	834.7646273017025	291.5557166371214	0.0	836.6934728347762	300.62004318534906	0.0	841.4916973978383	306.66019166869495	0.0	848.5074808494932	312.19864856679067	0.0	857.1891272174664	317.52075761178475	0.0	866.6513642864626	321.1485236453161	0.0	875.9634919022251	321.16441712831585	0.0	879.9578586630142	319.3502497331159	0.0	881.120158237971	313.9097065587011	0.0	880.2003804284146	309.51189034450186	0.0	880.0340691106405	302.6264564206706	0.0	879.1248722061985	294.75273260912246	0.0	878.8871486553218	286.0692796107704	0.0	878.7335245652791	276.87119315991237	0.0	878.7656357331756	266.8364392725661	0.0	861.9229190324122	266.27080427426563	0.0	867.3891068963493	264.2395540126961	0.0	872.8277993836415	262.4258200445243	0.0	876.4371371504769	262.41101043261256	0.0	880.0553548737714	263.9412999473658	0.0	885.5216219362777	262.625218258282	0.0	886.7788661100684	262.39870884047156	0.0	887.1007145852353	262.1174140315408	0.0	887.3336906294892	262.3900705706304	0.0	886.8066650614853	263.8010643564229	0.0	881.9670442626632	272.99035968434094	0.0	885.3911472076544	278.9436629825288	0.0	889.0373857374187	284.08650891283054	0.0	889.6469958246788	289.5179054509724	0.0	879.9510513568589	293.3079320008056	0.0	882.0209830506894	293.3483829672365	0.0	883.8351231187347	293.55071990168915	0.0	885.6513816094094	293.5484801013533	0.0	887.5561176244287	291.7214821524942	0.0	865.9559968289091	273.40458177212145	0.0	869.5647882663362	271.58893761706145	0.0	872.812083011834	270.2631211216238	0.0	874.5980432948556	273.00719782845624	0.0	872.8270526870376	275.1011103181769	0.0	869.1850643695026	275.2159035766181	0.0	882.2503742913442	271.1665642954013	0.0	883.8119369488979	269.8501274653673	0.0	885.2494391759619	269.85097633326944	0.0	885.2508669197867	271.1499159246902	0.0	885.2638546907574	271.3821228576143	0.0	883.5549244190569	271.7763283776972	0.0	872.9457292951303	304.7250609939157	0.0	878.3951407328846	302.8998935276138	0.0	883.6061775646783	301.0694806320206	0.0	885.1088189362691	301.1858593668806	0.0	885.6489597245837	301.070912081509	0.0	886.954939688048	302.6671087884027	0.0	885.1256802529009	303.02314706314775	0.0	885.1094437741983	306.6253450092331	0.0	885.0094551031953	309.65190175269925	0.0	882.025432069102	309.8427269376758	0.0	879.5916222134103	309.64039103137	0.0	876.5852316538965	308.0713494456591	0.0	874.1340066133931	304.685187277396	0.0	879.9294493153398	304.2150739371875	0.0	883.3227716361224	304.17172007810336	0.0	885.1095797556726	302.9983472748013	0.0	885.1087415431771	303.00254221382966	0.0	883.8354044348588	306.0264137459267	0.0	881.4984960110314	306.0112474727322	0.0	879.5860736162025	306.0162715244887	0.0	696.2378792587394	523.7078695076182	0.0	800.3993082131493	344.7838384135951	0.0
2	0.04006279434850863	687.426073201146	529.4978923308846	0.0	844.7312575662698	428.9633067032026	0.0	865.4290210984016	570.2751766841425	0.0	900.1722059412341	555.9428837223397	0.0	885.9337083314509	552.9988977563238	0.0	865.2310161139129	582.3359373851389	0.0	705.3607669452523	516.2530383056593	0.0	862.8098201912727	413.8475751081164	0.0	858.8047930834439	547.0216668765798	0.0	897.3447946723292	545.2658042231209	0.0	888.2738180999779	525.4837476815118	0.0	875.000093527579	566.4961732073612	0.0	883.6587459295348	290.442673235936	0.0	868.8536427458752	273.6459949154908	0.0	878.3261828470839	271.7657203669236	0.0	822.1465895262965	282.1955368384134	0.0	831.9731899733251	280.20020479902456	0.0	817.3989095788186	353.0339077693697	0.0	960.6321650589837	404.0431670383719	0.0	1085.2765659617962	428.54401308604776	0.0	1103.2709791873965	436.9356502883311	0.0	1110.1395672258288	448.9730826161378	0.0	1117.3532483377776	456.51584540802486	0.0	1124.5363934158859	460.86827429466064	0.0	1123.9025952162747	436.56732891775454	0.0	1133.894063234202	445.04757790077406	0.0	1135.7918696180752	450.42460158661925	0.0	1135.1115040421519	454.8932276970885	0.0	1127.5867918208248	436.79612859879984	0.0	1137.4829865424074	444.7904145795131	0.0	1137.2562620769575	449.3963990212049	0.0	1135.006212360727	452.7221590408456	0.0	1128.9299741870361	436.18786946745576	0.0	1138.8401018868676	444.2762698568382	0.0	1139.7397358643689	448.30777684133477	0.0	1136.2483268262636	452.39267100103217	0.0	1128.5487239414979	437.23521600476255	0.0	1137.9625783209103	442.61708805034675	0.0	1139.1861414347013	446.56852044186627	0.0	1138.8225109339999	449.6130089339015	0.0	789.1205776028326	336.1059113468642	0.0	887.2483864483551	426.0074683890303	0.0	968.9431401242671	452.8626872407789	0.0	986.8547770255892	453.40004154353795	0.0	1001.5938476061486	458.59109620189366	0.0	1009.6506329029335	462.538859740697	0.0	1015.444078474388	466.3353759155303	0.0	1006.7165690790262	451.3002322415002	0.0	1013.1552312178785	456.993375385396	0.0	1016.5199737296158	458.4114804443115	0.0	1015.8731784540992	461.7302361113922	0.0	1004.7454286185998	454.3746920907814	0.0	1014.2994302126019	461.8175772034298	0.0	1014.3374805567058	462.4903559089501	0.0	1014.8693546007773	465.29696527274194	0.0	1003.4821824965112	458.4735474393783	0.0	1011.6538292490105	465.62961716486757	0.0	1013.2269419453646	465.49833401705826	0.0	1010.5133085391373	467.0223307402229	0.0	1001.638300933487	461.37703525030804	0.0	1006.7263717708747	467.72547251146244	0.0	1009.4005285597812	467.7722681223998	0.0	1008.7077652690467	468.5299035675824	0.0	829.3009114139509	271.2683307230113	0.0	830.1060842320921	281.0117168165312	0.0	831.5604843822822	290.04896651115797	0.0	833.6430560782594	299.0654069461234	0.0	837.8704110350085	305.5512856523835	0.0	844.6923336111907	311.2022597675428	0.0	853.0552608756336	316.3517604877804	0.0	862.7522325610017	319.95573373801415	0.0	872.2226884357705	320.03918422681073	0.0	876.4954713520293	318.22909498041315	0.0	877.0739773679466	312.8189345147356	0.0	876.8536865430228	307.73773347414806	0.0	876.4868197640246	301.2911200122029	0.0	876.2907076695202	292.90018924363693	0.0	875.8880841373089	284.54458077594234	0.0	875.4969262877055	275.25798432274865	0.0	875.5455472548587	266.0308695069235	0.0	858.5009199897347	264.9204523161666	0.0	863.957126016592	262.7256524103747	0.0	869.373662675587	260.9133672762649	0.0	872.9764976580859	260.8882889221399	0.0	876.4798274735174	262.2627958123742	0.0	881.9477703366521	261.36209065535866	0.0	882.7767164497543	260.85880421751267	0.0	883.3266142079252	260.428999291617	0.0	883.7490390661192	260.97389315814365	0.0	882.8232625046586	261.96752693957256	0.0	878.5491291062857	271.2655735583234	0.0	881.7487865878209	277.53156770174775	0.0	885.3823019683149	282.4799357540704	0.0	886.488808398089	287.815910081151	0.0	876.365221266891	291.7062038704986	0.0	878.6920670936572	291.8263559381118	0.0	880.496350660903	292.20134958445885	0.0	882.3025325406479	292.2024618321364	0.0	884.2570311808176	290.37489580695615	0.0	862.8372030254324	271.9838188605434	0.0	866.423109593544	270.18093457445184	0.0	869.3637836881222	269.1789619818215	0.0	871.0766140441849	271.29899924757297	0.0	869.3928986761008	273.5335454616653	0.0	865.75743998151	273.7871777409019	0.0	878.9864185926027	269.44384922290453	0.0	880.3742666011589	268.4772893067962	0.0	881.404363098756	268.47496702769826	0.0	881.4050651242076	269.4255806567844	0.0	881.4265557792605	269.8501085095598	0.0	879.8566195036396	270.52586081971714	0.0	869.6305712556032	303.4735473336122	0.0	875.0816132869356	301.6477163510387	0.0	880.0540089094028	299.81106023483807	0.0	881.3255430101742	300.06628642604693	0.0	882.3033043487098	299.8117846724084	0.0	883.180084901607	301.21621887416165	0.0	881.3586638242788	301.99568504792455	0.0	881.3329104133483	305.5001360815956	0.0	881.1043055318137	308.02241168747526	0.0	878.6730423182292	308.38040380904937	0.0	875.6948113432254	308.0062638515464	0.0	873.2641469717123	306.6512983625376	0.0	870.2749732533333	303.35443915857775	0.0	876.4414527637053	302.59876469320466	0.0	879.6210383086598	302.50013641892923	0.0	881.3331043843444	301.89363603610457	0.0	881.3254616745833	301.87281657732785	0.0	880.5002636695725	304.42131822342463	0.0	877.7476218128138	304.3915762943277	0.0	875.7137126168666	304.37819636317494	0.0	696.3934200731989	522.8754653117342	0.0	803.2597435908255	344.56990979992713	0.0
3	0.06009419152276295	684.6561094648137	530.07749676437	0.0	843.1632194854061	428.4800290781788	0.0	866.4845373730964	570.2961661695161	0.0	907.6493570242569	556.6291969665646	0.0	893.1026331766981	555.5740389483399	0.0	866.7061483827534	581.4755855269315	0.0	707.0266184698661	515.3726616001155	0.0	860.7672853350938	412.75664694548846	0.0	864.2761440052938	547.3735031332507	0.0	910.8249185372226	545.6957308934241	0.0	898.799899326056	526.8840641681281	0.0	878.8283251505347	564.8828477939015	0.0	879.1512435885951	288.4294966984857	0.0	864.0993867911978	271.89807413148293	0.0	873.6446051246933	270.14442671108714	0.0	817.8400166972465	280.86045186007897	0.0	828.0861807712922	278.66369749922785	0.0	813.8832475392786	351.8979680344302	0.0	959.8954522861733	401.6961725507304	0.0	1084.2073266849177	427.02552584981095	0.0	1101.6110989939723	435.64637167943783	0.0	1108.8927406166285	447.5261825136021	0.0	1116.648898242741	454.86460726279955	0.0	1123.1144580633093	459.47562635949333	0.0	1122.7403965434703	435.60516467703246	0.0	1132.6667611814642	443.500502294115	0.0	1134.1054295897497	448.4588882584431	0.0	1133.2090980012001	453.1349048324841	0.0	1125.9715094922904	435.6434119581087	0.0	1135.7516120778293	443.10069527050234	0.0	1135.3643487094614	447.46234272572354	0.0	1133.0270882909929	450.7240234864351	0.0	1127.0232883685949	434.88141437299123	0.0	1136.8119357478345	442.1024038655805	0.0	1137.3990954815388	446.2642945939252	0.0	1134.2019301972032	449.9889555495959	0.0	1126.6670237634944	435.3686769452058	0.0	1135.6544211253654	440.4183645049555	0.0	1137.0244071942202	443.94208913645355	0.0	1136.6299094671185	447.115602961336	0.0	796.8292955988665	336.749750559137	0.0	886.9377478862449	424.1915328475819	0.0	969.4689500733873	451.55584237378423	0.0	986.7062580636601	452.93981014918893	0.0	1000.7528841708964	457.3217815335235	0.0	1008.8961725992683	460.94929603108073	0.0	1015.0729129265814	464.95975986038354	0.0	1006.6603350475847	450.1606492125482	0.0	1013.2118820888167	455.92166760715213	0.0	1016.2875925278946	457.19536877052315	0.0	1015.8791532614301	460.38524890838323	0.0	1005.2455105772021	453.40791038020376	0.0	1014.1901678301153	460.2988515933976	0.0	1014.424626860267	460.8929536399506	0.0	1014.3672787097014	463.7410023853395	0.0	1004.0787186062215	456.9141981184003	0.0	1011.9807324431127	463.66111317061814	0.0	1013.234752923774	463.4710818196555	0.0	1010.5360612414552	464.8724365813883	0.0	1002.7351261788517	459.6276096644582	0.0	1007.7257420433352	465.64949837364674	0.0	1009.9575748201435	465.7675496709151	0.0	1009.253160537821	466.95763738821205	0.0	825.0599489801581	269.71965039117254	0.0	826.105341981531	279.25830274760125	0.0	827.1884230501706	288.27310137698237	0.0	829.4762638642552	297.27106713196036	0.0	833.3641084505342	303.97574632517467	0.0	840.1066616140946	309.8081073464605	0.0	848.3658265607426	314.8008389189526	0.0	858.1394705613857	318.3868155610763	0.0	867.6805987547294	318.6224528141898	0.0	872.1399078252413	316.8073867029167	0.0	872.3177589724214	311.413371176082	0.0	872.466649470608	305.8306001869415	0.0	871.8562537714365	299.758428039887	0.0	872.0361944292712	290.97628423306634	0.0	871.6408839169836	282.74299663183	0.0	870.9126818849686	273.3787736370361	0.0	870.9330923186058	264.6682180068334	0.0	853.958647515263	263.0686938097043	0.0	859.4065137153098	260.8154469340051	0.0	864.8238697753297	258.9929291756137	0.0	868.4937533994369	258.97150008081877	0.0	871.7499798903518	260.38043752799234	0.0	877.2307833270405	259.7381815506026	0.0	877.882721813538	258.9192285973907	0.0	878.5347631121394	258.5219955826543	0.0	879.0269616649852	259.2782283606645	0.0	877.9317903793122	259.95750522293747	0.0	874.0674484847377	269.4178263474808	0.0	877.0873652685272	275.7158023984545	0.0	880.6859082073079	280.66503663142583	0.0	882.0700735615015	285.83018723455797	0.0	871.7944931881137	289.81433970663136	0.0	874.3526501425483	290.06961077151203	0.0	876.1513896191004	290.52934930859413	0.0	877.9493999191602	290.5389346137382	0.0	879.8675255928848	288.71822692486796	0.0	858.476944681611	270.246318544705	0.0	862.0842256562961	268.4558592960373	0.0	864.8752776121738	267.4826263393977	0.0	866.468884389918	269.4570079660276	0.0	864.9188300948475	271.65865273654873	0.0	861.2804529775143	272.0505513664446	0.0	874.4799768260879	267.59323665807824	0.0	875.7959418642306	266.70837093618826	0.0	876.4773886048727	266.6993671975719	0.0	876.4752656729813	267.6072795347114	0.0	876.5029745178259	268.1076327829377	0.0	875.0648655179278	268.88046387497656	0.0	865.2271816521516	301.7469210314365	0.0	870.7428280109814	299.9146736440515	0.0	875.5640388395743	298.0781023937636	0.0	876.7337632834212	298.4699446244211	0.0	877.9585469714237	298.07603213358476	0.0	878.5579152249427	299.3962881357871	0.0	876.7720167579075	300.632807464762	0.0	876.7527842781107	303.9612206351666	0.0	876.382185206388	306.2242510546555	0.0	874.2588149683082	306.675897635405	0.0	870.8796719640756	306.20739105146623	0.0	868.8673884304443	304.946314101229	0.0	865.5303563524334	301.4929393563317	0.0	872.0714796569209	300.75416014548443	0.0	875.1639327816796	300.59533861953145	0.0	876.7529412588076	300.3658940909636	0.0	876.733756059626	300.26771845553344	0.0	876.1616375365353	302.6398595339692	0.0	873.1643923380719	302.5951009703861	0.0	870.9763209067814	302.51556257180374	0.0	695.8413639673396	522.7250790394313	0.0	805.3562715690725	344.32385825265106	0.0
